<svg width="22" height="24" viewBox="0 0 22 24" fill="none" xmlns="http://www.w3.org/2000/svg">
<path d="M21.0367 16.0639C21.2643 15.4699 20.6138 14.9639 20.0682 15.2279C18.9775 15.7518 17.7992 16.0215 16.6083 16.0199C11.9388 16.0199 8.15421 11.9573 8.15421 6.94494C8.15373 5.25278 8.59255 3.59536 9.41947 2.16607C9.73635 1.61851 9.35587 0.860739 8.77568 1.02207C4.30263 2.2724 1 6.63817 1 11.8314C1 17.9999 5.65827 23 11.4055 23C15.757 23 19.4836 20.1339 21.0367 16.0639Z" stroke="white" stroke-width="1.5"/>
<path d="M15.2211 1.4252C14.6298 0.992531 13.9246 1.76497 14.3185 2.41275L15.0214 3.56775C15.3068 4.03594 15.4592 4.5863 15.4592 5.1493C15.4592 5.71229 15.3068 6.26265 15.0214 6.73085L14.3185 7.88584C13.9246 8.53362 14.6309 9.30606 15.2223 8.87339L16.2755 8.1034C16.7029 7.79073 17.2054 7.62385 17.7193 7.62385C18.2333 7.62385 18.7357 7.79073 19.1631 8.1034L20.2175 8.87339C20.8088 9.30606 21.514 8.53362 21.119 7.88584L20.4161 6.73085C20.1306 6.26265 19.9783 5.71229 19.9783 5.1493C19.9783 4.5863 20.1306 4.03594 20.4161 3.56775L21.119 2.41275C21.514 1.76497 20.8088 0.992531 20.2164 1.4252L19.1631 2.19519C18.7357 2.50786 18.2333 2.67474 17.7193 2.67474C17.2054 2.67474 16.7029 2.50786 16.2755 2.19519L15.2211 1.4252Z" stroke="white" stroke-width="1.5"/>
</svg>
