<svg width="92" height="107" viewBox="0 0 92 107" fill="none" xmlns="http://www.w3.org/2000/svg">
<path id="&#240;&#159;&#159;&#141;" opacity="0.39" d="M45.92 106.1L35.7 71.1L0.140015 79.64L25.34 53.46L0.280014 27.14L35.7 35.68L45.92 0.679993L56.14 35.68L91.56 27.14L66.36 53.46L91.56 79.78L56.14 71.1L45.92 106.1ZM45.92 96.44L54.18 67.88L45.92 53.46L83.16 74.88L62.58 53.46H45.92L83.02 32.04L54.18 39.04L45.92 53.46V10.48L37.66 39.04L45.92 53.46L8.68001 32.04L29.12 53.46H45.92L8.68001 74.88L37.66 67.88L45.92 53.46V96.44Z" fill="white"/>
</svg>
